<mxfile host="app.diagrams.net" modified="2022-02-27T12:55:39.077Z" agent="5.0 (Macintosh; Intel Mac OS X 10_15_7) AppleWebKit/537.36 (KHTML, like Gecko) Chrome/97.0.4692.71 Safari/537.36" etag="5qEpSwWdKsnbDRu713Tn" version="16.6.2" type="github">
  <diagram id="cik4pUAZ0DND3USEiahB" name="Page-1">
    <mxGraphModel dx="1455" dy="695" grid="1" gridSize="10" guides="1" tooltips="1" connect="1" arrows="1" fold="1" page="1" pageScale="1" pageWidth="827" pageHeight="1169" math="0" shadow="0">
      <root>
        <mxCell id="0" />
        <mxCell id="1" parent="0" />
        <mxCell id="Z9-XJ0bZTqutM6zoiM_b-13" style="edgeStyle=orthogonalEdgeStyle;rounded=0;orthogonalLoop=1;jettySize=auto;html=1;exitX=0.5;exitY=1;exitDx=0;exitDy=0;entryX=0.5;entryY=0;entryDx=0;entryDy=0;" parent="1" source="Z9-XJ0bZTqutM6zoiM_b-1" target="Z9-XJ0bZTqutM6zoiM_b-3" edge="1">
          <mxGeometry relative="1" as="geometry" />
        </mxCell>
        <mxCell id="Z9-XJ0bZTqutM6zoiM_b-1" value="Starts" style="rounded=1;whiteSpace=wrap;html=1;fillColor=#d5e8d4;strokeColor=#82b366;" parent="1" vertex="1">
          <mxGeometry x="400" y="40" width="120" height="40" as="geometry" />
        </mxCell>
        <mxCell id="Z9-XJ0bZTqutM6zoiM_b-14" style="edgeStyle=orthogonalEdgeStyle;rounded=0;orthogonalLoop=1;jettySize=auto;html=1;exitX=0.5;exitY=1;exitDx=0;exitDy=0;entryX=0.5;entryY=0;entryDx=0;entryDy=0;" parent="1" source="Z9-XJ0bZTqutM6zoiM_b-3" target="Z9-XJ0bZTqutM6zoiM_b-4" edge="1">
          <mxGeometry relative="1" as="geometry" />
        </mxCell>
        <mxCell id="Z9-XJ0bZTqutM6zoiM_b-3" value="P1 places his battleships on the grid" style="shape=parallelogram;perimeter=parallelogramPerimeter;whiteSpace=wrap;html=1;fixedSize=1;fillColor=#dae8fc;strokeColor=#6c8ebf;" parent="1" vertex="1">
          <mxGeometry x="400" y="120" width="120" height="40" as="geometry" />
        </mxCell>
        <mxCell id="Z9-XJ0bZTqutM6zoiM_b-15" style="edgeStyle=orthogonalEdgeStyle;rounded=0;orthogonalLoop=1;jettySize=auto;html=1;entryX=0.5;entryY=0;entryDx=0;entryDy=0;startArrow=none;" parent="1" source="w-NMiRwozyTj5YcVV4Kx-34" target="Z9-XJ0bZTqutM6zoiM_b-5" edge="1">
          <mxGeometry relative="1" as="geometry">
            <mxPoint x="460" y="290" as="sourcePoint" />
          </mxGeometry>
        </mxCell>
        <mxCell id="w-NMiRwozyTj5YcVV4Kx-35" value="" style="edgeStyle=orthogonalEdgeStyle;rounded=0;orthogonalLoop=1;jettySize=auto;html=1;" edge="1" parent="1" source="Z9-XJ0bZTqutM6zoiM_b-4" target="w-NMiRwozyTj5YcVV4Kx-34">
          <mxGeometry relative="1" as="geometry" />
        </mxCell>
        <mxCell id="Z9-XJ0bZTqutM6zoiM_b-4" value="P2 places his battleships on the grid" style="shape=parallelogram;perimeter=parallelogramPerimeter;whiteSpace=wrap;html=1;fixedSize=1;fillColor=#dae8fc;strokeColor=#6c8ebf;" parent="1" vertex="1">
          <mxGeometry x="400" y="200" width="120" height="40" as="geometry" />
        </mxCell>
        <mxCell id="w-NMiRwozyTj5YcVV4Kx-61" style="edgeStyle=orthogonalEdgeStyle;rounded=0;orthogonalLoop=1;jettySize=auto;html=1;entryX=0.5;entryY=0;entryDx=0;entryDy=0;" edge="1" parent="1" source="Z9-XJ0bZTqutM6zoiM_b-5" target="w-NMiRwozyTj5YcVV4Kx-40">
          <mxGeometry relative="1" as="geometry" />
        </mxCell>
        <mxCell id="Z9-XJ0bZTqutM6zoiM_b-5" value="Attacker instructs strikes" style="shape=parallelogram;perimeter=parallelogramPerimeter;whiteSpace=wrap;html=1;fixedSize=1;fillColor=#dae8fc;strokeColor=#6c8ebf;" parent="1" vertex="1">
          <mxGeometry x="400" y="360" width="120" height="40" as="geometry" />
        </mxCell>
        <mxCell id="w-NMiRwozyTj5YcVV4Kx-36" value="" style="edgeStyle=orthogonalEdgeStyle;rounded=0;orthogonalLoop=1;jettySize=auto;html=1;" edge="1" parent="1" source="w-NMiRwozyTj5YcVV4Kx-34" target="Z9-XJ0bZTqutM6zoiM_b-5">
          <mxGeometry relative="1" as="geometry" />
        </mxCell>
        <mxCell id="w-NMiRwozyTj5YcVV4Kx-34" value="Select 1st Attacker" style="shape=parallelogram;perimeter=parallelogramPerimeter;whiteSpace=wrap;html=1;fixedSize=1;fillColor=#dae8fc;strokeColor=#6c8ebf;" vertex="1" parent="1">
          <mxGeometry x="400" y="280" width="120" height="40" as="geometry" />
        </mxCell>
        <mxCell id="w-NMiRwozyTj5YcVV4Kx-38" style="edgeStyle=orthogonalEdgeStyle;rounded=0;orthogonalLoop=1;jettySize=auto;html=1;exitX=0;exitY=0.5;exitDx=0;exitDy=0;entryX=1;entryY=0.5;entryDx=0;entryDy=0;" edge="1" parent="1" source="w-NMiRwozyTj5YcVV4Kx-40" target="w-NMiRwozyTj5YcVV4Kx-44">
          <mxGeometry relative="1" as="geometry">
            <mxPoint x="300" y="720" as="targetPoint" />
          </mxGeometry>
        </mxCell>
        <mxCell id="w-NMiRwozyTj5YcVV4Kx-39" style="edgeStyle=orthogonalEdgeStyle;rounded=0;orthogonalLoop=1;jettySize=auto;html=1;exitX=1;exitY=0.5;exitDx=0;exitDy=0;entryX=0;entryY=0.5;entryDx=0;entryDy=0;" edge="1" parent="1" source="w-NMiRwozyTj5YcVV4Kx-40" target="w-NMiRwozyTj5YcVV4Kx-57">
          <mxGeometry relative="1" as="geometry" />
        </mxCell>
        <mxCell id="w-NMiRwozyTj5YcVV4Kx-40" value="Attacker hits one of Defender&#39;s battleships?" style="rhombus;whiteSpace=wrap;html=1;fillColor=#f8cecc;strokeColor=#b85450;" vertex="1" parent="1">
          <mxGeometry x="400" y="440" width="120" height="80" as="geometry" />
        </mxCell>
        <mxCell id="w-NMiRwozyTj5YcVV4Kx-64" style="edgeStyle=orthogonalEdgeStyle;rounded=0;orthogonalLoop=1;jettySize=auto;html=1;entryX=0.5;entryY=0;entryDx=0;entryDy=0;" edge="1" parent="1" source="w-NMiRwozyTj5YcVV4Kx-42">
          <mxGeometry relative="1" as="geometry">
            <mxPoint x="140" y="640" as="targetPoint" />
            <Array as="points">
              <mxPoint x="140" y="585" />
            </Array>
          </mxGeometry>
        </mxCell>
        <mxCell id="w-NMiRwozyTj5YcVV4Kx-82" style="edgeStyle=orthogonalEdgeStyle;rounded=0;orthogonalLoop=1;jettySize=auto;html=1;entryX=1;entryY=0.75;entryDx=0;entryDy=0;startArrow=none;exitX=1;exitY=0.5;exitDx=0;exitDy=0;" edge="1" parent="1" source="w-NMiRwozyTj5YcVV4Kx-42" target="w-NMiRwozyTj5YcVV4Kx-80">
          <mxGeometry relative="1" as="geometry">
            <mxPoint x="390" y="584.5" as="sourcePoint" />
          </mxGeometry>
        </mxCell>
        <mxCell id="w-NMiRwozyTj5YcVV4Kx-42" value="Attacker sinks one of Defender&#39;s battleships?" style="rhombus;whiteSpace=wrap;html=1;fillColor=#f8cecc;strokeColor=#b85450;" vertex="1" parent="1">
          <mxGeometry x="180" y="545" width="120" height="80" as="geometry" />
        </mxCell>
        <mxCell id="w-NMiRwozyTj5YcVV4Kx-43" style="edgeStyle=orthogonalEdgeStyle;rounded=0;orthogonalLoop=1;jettySize=auto;html=1;entryX=0.5;entryY=0;entryDx=0;entryDy=0;" edge="1" parent="1" source="w-NMiRwozyTj5YcVV4Kx-44" target="w-NMiRwozyTj5YcVV4Kx-42">
          <mxGeometry relative="1" as="geometry" />
        </mxCell>
        <mxCell id="w-NMiRwozyTj5YcVV4Kx-44" value="Message &quot;Battleship hit!&quot;" style="rounded=0;whiteSpace=wrap;html=1;fillColor=#e1d5e7;strokeColor=#9673a6;" vertex="1" parent="1">
          <mxGeometry x="180" y="460" width="120" height="40" as="geometry" />
        </mxCell>
        <mxCell id="w-NMiRwozyTj5YcVV4Kx-74" style="edgeStyle=orthogonalEdgeStyle;rounded=0;orthogonalLoop=1;jettySize=auto;html=1;exitX=0.5;exitY=1;exitDx=0;exitDy=0;entryX=0.5;entryY=0;entryDx=0;entryDy=0;" edge="1" parent="1" source="w-NMiRwozyTj5YcVV4Kx-46" target="w-NMiRwozyTj5YcVV4Kx-50">
          <mxGeometry relative="1" as="geometry">
            <mxPoint x="226" y="720" as="targetPoint" />
            <Array as="points" />
          </mxGeometry>
        </mxCell>
        <mxCell id="w-NMiRwozyTj5YcVV4Kx-46" value="Message &quot;Battleship sunk!&quot;" style="rounded=0;whiteSpace=wrap;html=1;fillColor=#e1d5e7;strokeColor=#9673a6;" vertex="1" parent="1">
          <mxGeometry x="80" y="640" width="120" height="40" as="geometry" />
        </mxCell>
        <mxCell id="w-NMiRwozyTj5YcVV4Kx-47" value="True" style="text;html=1;strokeColor=none;fillColor=none;align=center;verticalAlign=middle;whiteSpace=wrap;rounded=0;" vertex="1" parent="1">
          <mxGeometry x="330" y="480" width="60" height="30" as="geometry" />
        </mxCell>
        <mxCell id="w-NMiRwozyTj5YcVV4Kx-85" style="edgeStyle=orthogonalEdgeStyle;rounded=0;orthogonalLoop=1;jettySize=auto;html=1;exitX=0;exitY=0.5;exitDx=0;exitDy=0;entryX=0;entryY=0.5;entryDx=0;entryDy=0;" edge="1" parent="1" source="w-NMiRwozyTj5YcVV4Kx-50" target="w-NMiRwozyTj5YcVV4Kx-52">
          <mxGeometry relative="1" as="geometry">
            <mxPoint x="40" y="760" as="sourcePoint" />
            <mxPoint x="60" y="830" as="targetPoint" />
            <Array as="points">
              <mxPoint x="30" y="760" />
              <mxPoint x="30" y="850" />
            </Array>
          </mxGeometry>
        </mxCell>
        <mxCell id="w-NMiRwozyTj5YcVV4Kx-86" style="edgeStyle=orthogonalEdgeStyle;rounded=0;orthogonalLoop=1;jettySize=auto;html=1;entryX=1;entryY=0.25;entryDx=0;entryDy=0;" edge="1" parent="1" source="w-NMiRwozyTj5YcVV4Kx-50" target="w-NMiRwozyTj5YcVV4Kx-80">
          <mxGeometry relative="1" as="geometry">
            <mxPoint x="780" y="370" as="targetPoint" />
            <Array as="points">
              <mxPoint x="780" y="760" />
              <mxPoint x="780" y="370" />
            </Array>
          </mxGeometry>
        </mxCell>
        <mxCell id="w-NMiRwozyTj5YcVV4Kx-50" value="All Defender&#39;s battleships sunk?" style="rhombus;whiteSpace=wrap;html=1;fillColor=#f8cecc;strokeColor=#b85450;" vertex="1" parent="1">
          <mxGeometry x="80" y="720" width="120" height="80" as="geometry" />
        </mxCell>
        <mxCell id="w-NMiRwozyTj5YcVV4Kx-73" value="" style="edgeStyle=orthogonalEdgeStyle;rounded=0;orthogonalLoop=1;jettySize=auto;html=1;" edge="1" parent="1" source="w-NMiRwozyTj5YcVV4Kx-52" target="w-NMiRwozyTj5YcVV4Kx-53">
          <mxGeometry relative="1" as="geometry" />
        </mxCell>
        <mxCell id="w-NMiRwozyTj5YcVV4Kx-52" value="Message &quot;Attacker is winner!&quot;" style="rounded=0;whiteSpace=wrap;html=1;fillColor=#e1d5e7;strokeColor=#9673a6;" vertex="1" parent="1">
          <mxGeometry x="80" y="830" width="120" height="40" as="geometry" />
        </mxCell>
        <mxCell id="w-NMiRwozyTj5YcVV4Kx-53" value="Ends" style="rounded=1;whiteSpace=wrap;html=1;fillColor=#d5e8d4;strokeColor=#82b366;" vertex="1" parent="1">
          <mxGeometry x="280" y="830" width="120" height="40" as="geometry" />
        </mxCell>
        <mxCell id="w-NMiRwozyTj5YcVV4Kx-62" style="edgeStyle=orthogonalEdgeStyle;rounded=0;orthogonalLoop=1;jettySize=auto;html=1;entryX=0.5;entryY=1;entryDx=0;entryDy=0;" edge="1" parent="1" source="w-NMiRwozyTj5YcVV4Kx-57" target="w-NMiRwozyTj5YcVV4Kx-80">
          <mxGeometry relative="1" as="geometry">
            <mxPoint x="680" y="410" as="targetPoint" />
          </mxGeometry>
        </mxCell>
        <mxCell id="w-NMiRwozyTj5YcVV4Kx-57" value="Message &quot;Missed!&quot;" style="rounded=0;whiteSpace=wrap;html=1;fillColor=#e1d5e7;strokeColor=#9673a6;" vertex="1" parent="1">
          <mxGeometry x="620" y="460" width="120" height="40" as="geometry" />
        </mxCell>
        <mxCell id="w-NMiRwozyTj5YcVV4Kx-58" value="False" style="text;html=1;strokeColor=none;fillColor=none;align=center;verticalAlign=middle;whiteSpace=wrap;rounded=0;" vertex="1" parent="1">
          <mxGeometry x="530" y="480" width="60" height="30" as="geometry" />
        </mxCell>
        <mxCell id="w-NMiRwozyTj5YcVV4Kx-63" style="edgeStyle=orthogonalEdgeStyle;rounded=0;orthogonalLoop=1;jettySize=auto;html=1;" edge="1" parent="1" target="Z9-XJ0bZTqutM6zoiM_b-5">
          <mxGeometry relative="1" as="geometry">
            <mxPoint x="630" y="380" as="sourcePoint" />
          </mxGeometry>
        </mxCell>
        <mxCell id="w-NMiRwozyTj5YcVV4Kx-65" value="True" style="text;html=1;strokeColor=none;fillColor=none;align=center;verticalAlign=middle;whiteSpace=wrap;rounded=0;" vertex="1" parent="1">
          <mxGeometry x="140" y="585" width="60" height="30" as="geometry" />
        </mxCell>
        <mxCell id="w-NMiRwozyTj5YcVV4Kx-70" value="True" style="text;html=1;strokeColor=none;fillColor=none;align=center;verticalAlign=middle;whiteSpace=wrap;rounded=0;" vertex="1" parent="1">
          <mxGeometry x="30" y="760" width="60" height="30" as="geometry" />
        </mxCell>
        <mxCell id="w-NMiRwozyTj5YcVV4Kx-80" value="Switch Attacker/Defender" style="rounded=0;whiteSpace=wrap;html=1;fillColor=#e1d5e7;strokeColor=#9673a6;" vertex="1" parent="1">
          <mxGeometry x="620" y="360" width="120" height="40" as="geometry" />
        </mxCell>
        <mxCell id="w-NMiRwozyTj5YcVV4Kx-84" value="False" style="text;html=1;strokeColor=none;fillColor=none;align=center;verticalAlign=middle;whiteSpace=wrap;rounded=0;" vertex="1" parent="1">
          <mxGeometry x="290" y="585" width="60" height="30" as="geometry" />
        </mxCell>
        <mxCell id="w-NMiRwozyTj5YcVV4Kx-87" value="False" style="text;html=1;strokeColor=none;fillColor=none;align=center;verticalAlign=middle;whiteSpace=wrap;rounded=0;" vertex="1" parent="1">
          <mxGeometry x="200" y="760" width="60" height="30" as="geometry" />
        </mxCell>
      </root>
    </mxGraphModel>
  </diagram>
</mxfile>
